M48
INCH
T01C0.0200
T02C0.0300
T03C0.0400
T04C0.1181
T05C0.0150
T06C0.0500
%
T01
X-003750Y+006500
X-017538Y+007000
X-006750Y+006500
X-004000Y+002500
X-003550Y-000200
X+000500Y-013500
X+004665Y+011650
X-017250Y-002000
X-011250Y+003250
X-007950Y+002950
X-008250Y+001500
X-014500Y+003250
X-005850Y+007350
X-014000Y+007430
T02
X-003000Y+009500
X-003000Y+008500
X-003000Y+007500
X-003000Y+006500
X-003000Y+005500
X-003000Y+004500
X-003000Y+003500
X-003000Y+002500
X-003000Y+001500
X-003000Y+000500
X-003000Y-000500
X-003000Y-001500
X-003000Y-002500
X-003000Y-003500
X-003000Y-004500
X-003000Y-005500
X-003000Y-006500
X-003000Y-007500
X-003000Y-008500
X-003000Y-009500
X+003000Y-009500
X+003000Y-008500
X+003000Y-007500
X+003000Y-006500
X+003000Y-005500
X+003000Y-004500
X+003000Y-003500
X+003000Y-002500
X+003000Y-001500
X+003000Y-000500
X+003000Y+000500
X+003000Y+001500
X+003000Y+002500
X+003000Y+003500
X+003000Y+004500
X+003000Y+005500
X+003000Y+006500
X+003000Y+007500
X+003000Y+008500
X+003000Y+009500
X-007500Y+008500
X-007500Y+007500
X-007500Y+006500
X-007500Y+005500
X-007500Y+004500
X-007500Y+003500
X-007500Y+002500
X-007500Y+001500
X-004500Y+001500
X-004500Y+002500
X-004500Y+003500
X-004500Y+004500
X-004500Y+005500
X-004500Y+006500
X-004500Y+007500
X-004500Y+008500
X-005000Y-009500
X-005000Y-007500
X-008000Y-009500
X-007000Y-009500
X-008000Y-007500
X-007000Y-007500
X-005000Y-000500
X-005000Y-001500
X-006500Y-004500
X-006500Y-000500
X-012000Y-002500
X-012000Y-001500
X-012000Y-000500
X+004250Y+000500
X+004250Y+001500
X+004250Y+002500
X+004250Y+003500
X+004250Y+004500
X+002500Y-013500
X+000500Y-012500
X+000500Y-014500
X+004325Y-015575
X+004325Y-011575
X-006500Y+000500
X-010500Y+000500
X-009000Y-005500
X-005000Y-005500
X-013050Y-004500
X-012250Y-004500
X-011450Y-004500
X-008750Y+008500
X-009750Y+008500
X-008750Y+006500
X-009750Y+006500
X-009750Y+002500
X-008750Y+002500
X-009750Y+004500
X-008750Y+004500
X-005500Y+010250
X-006500Y+010250
X-007810Y-010999
X-003810Y-010999
X-006350Y-013500
X-005550Y-013500
X-004750Y-013500
X-007200Y-012000
X-003200Y-012000
X-001869Y-010969
X-001869Y-014969
X-000969Y-010969
X-000969Y-014969
X+001500Y-010750
X+000500Y-010750
X-015475Y-012025
X-015475Y-011025
X-013725Y-011025
X-013725Y-010025
X-015538Y+006420
X-015538Y+007500
X-015538Y+008580
X-015538Y+005340
X-015538Y+004260
X-016538Y+004800
X-016538Y+005880
X-016538Y+006960
X-016538Y+008040
X+000650Y+010450
X+004650Y+010450
T03
X-010000Y-000500
X-010000Y-001500
X-010000Y-002500
X-008000Y-002500
X-008000Y-001500
X-008000Y-000500
X+005500Y-008500
X+005500Y-007500
X+005500Y-006500
X+005500Y-005500
X+005500Y-004500
X+005500Y-003500
X+005500Y-002500
X+005500Y+008500
X+005500Y+007500
X+005500Y+006500
X+005500Y+005500
X+005500Y+004500
X+005500Y+003500
X+005500Y+002500
X+005500Y+001500
X+005500Y-011500
X+005500Y-010500
X+005500Y-009500
X-016000Y-002000
X-016000Y-003000
X-008100Y-015000
X-007100Y-015000
X-002750Y-015000
X-003750Y-015000
X-017225Y-012025
X-017225Y-011025
X-017225Y-010025
X+005500Y+000500
X+003665Y+011650
X+002665Y+011650
X+001665Y+011650
X+000665Y+011650
X+005500Y-001500
X-006100Y-015000
X-004750Y-015000
X-007250Y+013000
X-006750Y+013000
X-006250Y+013000
X-005750Y+013000
X-005250Y+013000
X-004750Y+013000
T04
X-016038Y+001500
X-016038Y+011340
X-010500Y-008250
X-012000Y+005750
T05
X-018500Y-016000
T06
X-010500Y-013500
X-008531Y-012318
X-010500Y-011137
M30
